 <svg xmlns="http://www.w3.org/2000/svg" xmlns:xlink="http://www.w3.org/1999/xlink" id="svg" version="1.1" width="400" height="400" viewBox="0, 0, 400,400"><g id="svgg"><path id="path0" d="M174.805 32.422 L 151.370 55.859 106.935 55.859 L 62.500 55.859 62.500 100.292 L 62.500 144.725 34.288 172.938 L 6.077 201.152 34.288 229.367 L 62.500 257.583 62.500 292.432 L 62.500 327.282 63.574 327.497 C 64.165 327.615,79.941 327.702,98.633 327.690 L 132.617 327.669 165.430 360.505 L 198.242 393.342 231.096 360.498 L 263.949 327.654 299.116 327.664 L 334.283 327.673 334.269 292.511 L 334.255 257.349 362.341 229.260 L 390.428 201.172 362.344 173.086 L 334.260 145.000 334.302 101.894 C 334.325 78.187,334.247 58.130,334.130 57.324 L 333.916 55.859 289.518 55.859 L 245.120 55.859 221.680 32.422 L 198.240 8.984 174.805 32.422 M184.350 107.855 C 199.059 109.235,213.726 114.448,226.172 122.716 C 230.325 125.475,232.382 126.944,233.392 127.872 C 233.825 128.270,234.757 129.043,235.464 129.589 C 238.860 132.219,245.650 139.402,249.537 144.478 C 253.495 149.646,260.547 161.537,260.547 163.043 C 260.547 163.162,260.967 164.188,261.481 165.321 C 275.586 196.437,268.517 237.235,244.349 264.197 C 236.013 273.496,220.653 284.309,210.680 287.899 C 202.520 290.836,199.293 291.847,195.313 292.714 C 173.505 297.465,152.338 294.765,132.165 284.658 L 128.196 282.670 130.940 280.979 C 149.213 269.713,166.300 247.226,171.080 228.152 C 171.273 227.385,171.706 225.791,172.044 224.609 C 178.359 202.534,173.976 171.976,161.764 152.930 C 161.213 152.070,160.527 150.931,160.240 150.398 C 157.221 144.792,144.364 130.566,139.453 127.399 C 138.916 127.052,138.301 126.580,138.086 126.350 C 137.542 125.768,134.864 123.828,134.604 123.828 C 134.487 123.828,133.464 123.126,132.332 122.267 C 131.200 121.409,130.075 120.706,129.833 120.705 C 127.126 120.694,129.846 118.339,135.156 116.095 C 148.495 110.458,158.030 108.056,169.141 107.534 C 171.611 107.418,173.666 107.297,173.707 107.266 C 173.894 107.121,180.325 107.477,184.350 107.855 " stroke="none" fill="#040404" fill-rule="evenodd"/></g></svg>
